0.11m3min_grf.mot
version=1
nRows=30
nColumns 19
inDegrees=yes
endheader
time	1_ground_force_vx	1_ground_force_vy	1_ground_force_vz	1_ground_force_px	1_ground_force_py	1_ground_force_pz	1_ground_torque_x	1_ground_torque_y	1_ground_torque_z	2_ground_force_vx	2_ground_force_vy	2_ground_force_vz	2_ground_force_px	2_ground_force_py	2_ground_force_pz	2_ground_torque_x	2_ground_torque_y	2_ground_torque_z
            0.005000	          -44.831751	         1275.452947	         -139.649479	           -0.293551	            0.006073	           -0.372930	           -0.393689	           11.200371	           -1.226330	          -23.766152	         1162.865261	          147.994291	           -0.265432	            0.005432	           -0.671563	            0.113049	           -5.531416	           -0.703966
            0.005500	          -42.997030	         1278.695392	         -138.998157	           -0.293858	            0.006073	           -0.372997	           -0.382750	           11.382667	           -1.237331	          -23.213305	         1165.624442	          149.411736	           -0.265685	            0.005432	           -0.671677	            0.107843	           -5.415174	           -0.694126
            0.006000	          -41.437333	         1283.018924	         -138.249779	           -0.294029	            0.006073	           -0.373046	           -0.369879	           11.452503	           -1.234047	          -22.708986	         1168.754701	          150.032760	           -0.265836	            0.005432	           -0.671890	            0.102414	           -5.270927	           -0.676628
            0.006500	          -39.739805	         1286.260752	         -137.460513	           -0.294322	            0.006074	           -0.373119	           -0.354911	           11.487424	           -1.227642	          -22.157153	         1171.700807	          150.653106	           -0.266044	            0.005431	           -0.671868	            0.096097	           -5.081728	           -0.653390
            0.007000	          -38.135058	         1289.324111	         -137.130376	           -0.294545	            0.006074	           -0.373195	           -0.342102	           11.566281	           -1.230170	          -21.371759	         1174.832249	          151.227075	           -0.266225	            0.005431	           -0.671968	            0.089805	           -4.936696	           -0.635463
            0.007500	          -36.530303	         1292.928040	         -136.752052	           -0.294789	            0.006075	           -0.373364	           -0.327890	           11.605093	           -1.227462	          -20.211253	         1177.962534	          152.504798	           -0.266387	            0.005431	           -0.672099	            0.084920	           -4.949354	           -0.640768
            0.008000	          -34.604987	         1295.271306	         -136.609210	           -0.295024	            0.006075	           -0.373367	           -0.314583	           11.774910	           -1.241872	          -18.580071	         1180.540521	          154.202711	           -0.266655	            0.005430	           -0.672153	            0.080790	           -5.133225	           -0.670504
            0.008500	          -33.091507	         1298.514279	         -136.094632	           -0.295164	            0.006075	           -0.373522	           -0.303047	           11.891593	           -1.246334	          -16.899258	         1182.381110	          156.179560	           -0.266774	            0.005429	           -0.672171	            0.077004	           -5.387717	           -0.711658
            0.009000	          -31.623530	         1301.756653	         -135.442369	           -0.295279	            0.006075	           -0.373542	           -0.291176	           11.986023	           -1.247096	          -16.114923	         1185.878536	          157.364885	           -0.267027	            0.005429	           -0.672334	            0.072212	           -5.313977	           -0.705159
            0.009500	          -29.972960	         1304.279450	         -135.160501	           -0.295675	            0.006076	           -0.373638	           -0.278643	           12.125196	           -1.256516	          -15.561015	         1188.271733	          158.170973	           -0.267060	            0.005429	           -0.672284	            0.066497	           -5.077866	           -0.675915
            0.010000	          -28.367012	         1306.980495	         -134.373357	           -0.295814	            0.006076	           -0.373700	           -0.264026	           12.164743	           -1.250682	          -14.676746	         1189.931315	          158.411156	           -0.267433	            0.005428	           -0.672386	            0.061496	           -4.985843	           -0.663747
            0.010500	          -27.174938	         1309.863796	         -134.088805	           -0.295986	            0.006076	           -0.373793	           -0.252525	           12.172007	           -1.246030	          -13.937453	         1192.877839	          159.172200	           -0.267607	            0.005427	           -0.672425	            0.057312	           -4.905204	           -0.654528
            0.011000	          -25.478707	         1312.747392	         -133.851371	           -0.296177	            0.006077	           -0.373870	           -0.237847	           12.254657	           -1.249519	          -12.351955	         1195.088592	          160.493394	           -0.267824	            0.005427	           -0.672476	            0.051941	           -5.025427	           -0.674885
            0.011500	          -24.056847	         1315.629754	         -133.338112	           -0.296380	            0.006077	           -0.373854	           -0.225256	           12.318901	           -1.248512	          -10.586370	         1199.325875	          161.821737	           -0.267953	            0.005427	           -0.672769	            0.046415	           -5.258315	           -0.709490
            0.012000	          -22.361476	         1317.613760	         -133.517258	           -0.296544	            0.006077	           -0.373970	           -0.212248	           12.506358	           -1.267302	           -8.670101	         1200.799911	          163.515588	           -0.268076	            0.005427	           -0.672816	            0.039069	           -5.410961	           -0.736823
            0.012500	          -20.939924	         1320.316295	         -133.142344	           -0.296636	            0.006077	           -0.373975	           -0.199840	           12.600438	           -1.270644	           -7.647489	         1203.193126	          164.790742	           -0.268259	            0.005427	           -0.672875	            0.033940	           -5.339901	           -0.731359
            0.013000	          -19.656293	         1322.659240	         -132.952042	           -0.296780	            0.006077	           -0.373947	           -0.188013	           12.651259	           -1.271689	           -6.905619	         1205.403512	          165.361445	           -0.268452	            0.005426	           -0.672861	            0.030114	           -5.256470	           -0.721101
            0.013500	          -18.372530	         1324.281246	         -132.764862	           -0.297020	            0.006078	           -0.374125	           -0.175328	           12.637547	           -1.266968	           -6.726777	         1207.797531	          165.557620	           -0.268576	            0.005426	           -0.672931	            0.028068	           -5.039594	           -0.690797
            0.014000	          -16.858563	         1326.081455	         -132.164735	           -0.297119	            0.006077	           -0.374074	           -0.160423	           12.618746	           -1.257655	           -5.938057	         1210.008087	          166.128303	           -0.268788	            0.005425	           -0.673010	            0.024794	           -5.052287	           -0.693655
            0.014500	          -15.391882	         1327.704283	         -132.161418	           -0.297342	            0.006077	           -0.374088	           -0.147382	           12.713213	           -1.265490	           -4.962000	         1212.219821	          166.558129	           -0.268941	            0.005425	           -0.673074	            0.021145	           -5.165616	           -0.709752
            0.015000	          -14.200374	         1329.327009	         -132.203287	           -0.297461	            0.006077	           -0.374105	           -0.136641	           12.791224	           -1.272104	           -3.045436	         1213.512790	          167.406603	           -0.269130	            0.005424	           -0.673096	            0.013371	           -5.327858	           -0.734989
            0.015500	          -12.916887	         1330.589012	         -132.155195	           -0.297565	            0.006078	           -0.374207	           -0.125128	           12.889664	           -1.280212	           -1.417324	         1216.830687	          168.168582	           -0.269245	            0.005425	           -0.673431	            0.006213	           -5.334149	           -0.737191
            0.016000	          -11.863283	         1332.392720	         -132.333520	           -0.297621	            0.006078	           -0.374185	           -0.115487	           12.970636	           -1.288246	           -0.111139	         1218.489861	          169.018659	           -0.269431	            0.005424	           -0.673454	            0.000494	           -5.416982	           -0.751398
            0.016500	          -10.625475	         1332.753110	         -132.289180	           -0.297800	            0.006078	           -0.374241	           -0.103871	           13.028586	           -1.293218	            0.870462	         1219.226628	          169.959431	           -0.269640	            0.005424	           -0.673400	           -0.003848	           -5.389243	           -0.751257
            0.017000	           -9.433868	         1333.835314	         -132.333367	           -0.297793	            0.006078	           -0.374278	           -0.092316	           13.052327	           -1.294956	            1.334555	         1220.515357	          170.526968	           -0.269771	            0.005423	           -0.673294	           -0.005878	           -5.375335	           -0.751027
            0.017500	           -8.150300	         1335.277294	         -132.238665	           -0.297896	            0.006078	           -0.374150	           -0.079589	           13.039252	           -1.291337	            2.358148	         1222.543014	          171.003023	           -0.269784	            0.005423	           -0.673441	           -0.010651	           -5.521595	           -0.772332
            0.018000	           -7.142339	         1334.737658	         -132.518600	           -0.298031	            0.006078	           -0.374298	           -0.069667	           13.019224	           -1.292606	            2.963147	         1223.650681	          170.865930	           -0.269922	            0.005423	           -0.673403	           -0.013330	           -5.504889	           -0.768682
            0.018500	           -6.225353	         1336.539767	         -132.329738	           -0.298026	            0.006078	           -0.374195	           -0.060837	           13.061338	           -1.293193	            4.409073	         1225.495613	          171.388085	           -0.270066	            0.005422	           -0.673527	           -0.020251	           -5.628742	           -0.787191
            0.019000	           -4.988276	         1336.541186	         -132.607953	           -0.298088	            0.006078	           -0.374223	           -0.049156	           13.170697	           -1.306760	            5.626815	         1225.681580	          172.092168	           -0.270296	            0.005422	           -0.673572	           -0.026165	           -5.699445	           -0.800232
            0.019500	           -4.163231	         1336.000972	         -132.704024	           -0.298255	            0.006078	           -0.374239	           -0.041094	           13.187175	           -1.309873	            6.839657	         1227.158602	          172.237683	           -0.270397	            0.005422	           -0.673600	           -0.032132	           -5.765137	           -0.809165
